<svg width="1354" height="512" viewBox="0 0 1354 512" fill="none" xmlns="http://www.w3.org/2000/svg">
<path d="M362.522 185H162.478C158.348 185 155 187.81 155 191.277V359.189C155 362.656 158.348 365.466 162.478 365.466H362.522C366.652 365.466 370 362.656 370 359.189V191.277C370 187.81 366.652 185 362.522 185Z" fill="url(#paint0_linear_1_2)" stroke="#374151" stroke-width="2"/>
<path d="M182.109 188.923V361.543" stroke="#374151" stroke-width="0.8"/>
<path d="M209.217 188.923V361.543" stroke="#374151" stroke-width="0.8"/>
<path d="M236.326 188.923V361.543" stroke="#374151" stroke-width="0.8"/>
<path d="M263.435 188.923V361.543" stroke="#374151" stroke-width="0.8"/>
<path d="M290.543 188.923V361.543" stroke="#374151" stroke-width="0.8"/>
<path d="M317.652 188.923V361.543" stroke="#374151" stroke-width="0.8"/>
<path d="M344.761 188.923V361.543" stroke="#374151" stroke-width="0.8"/>
<path d="M159.674 207.754H365.326" stroke="#374151" stroke-width="0.8"/>
<path d="M159.674 230.509H365.326" stroke="#374151" stroke-width="0.8"/>
<path d="M159.674 253.263H365.326" stroke="#374151" stroke-width="0.8"/>
<path d="M159.674 276.018H365.326" stroke="#374151" stroke-width="0.8"/>
<path d="M159.674 298.772H365.326" stroke="#374151" stroke-width="0.8"/>
<path d="M159.674 321.527H365.326" stroke="#374151" stroke-width="0.8"/>
<path d="M159.674 344.281H365.326" stroke="#374151" stroke-width="0.8"/>
<g filter="url(#filter0_d_1_2)">
<path d="M377.32 89H220.68C214.782 89 210 94.977 210 102.35V253.65C210 261.023 214.782 267 220.68 267H377.32C383.218 267 388 261.023 388 253.65V102.35C388 94.977 383.218 89 377.32 89Z" fill="url(#paint1_linear_1_2)"/>
<path d="M377.32 89H220.68C214.782 89 210 94.977 210 102.35V253.65C210 261.023 214.782 267 220.68 267H377.32C383.218 267 388 261.023 388 253.65V102.35C388 94.977 383.218 89 377.32 89Z" stroke="#3F118E" stroke-width="1.5"/>
</g>
<path opacity="0.58" d="M245.475 207H227.35L254.967 127H276.764L304.342 207H286.217L266.178 145.281H265.553L245.475 207ZM244.342 175.555H287.155V188.758H244.342V175.555ZM330.509 208.172C324.338 208.172 319.025 206.922 314.572 204.422C310.145 201.896 306.733 198.328 304.338 193.719C301.942 189.083 300.744 183.602 300.744 177.273C300.744 171.102 301.942 165.685 304.338 161.023C306.733 156.362 310.106 152.729 314.455 150.125C318.83 147.521 323.96 146.219 329.845 146.219C333.804 146.219 337.489 146.857 340.9 148.133C344.338 149.383 347.332 151.271 349.884 153.797C352.463 156.323 354.468 159.5 355.9 163.328C357.332 167.13 358.048 171.583 358.048 176.687V181.258H307.384V170.945H342.384C342.384 168.549 341.864 166.427 340.822 164.578C339.78 162.729 338.335 161.284 336.486 160.242C334.663 159.174 332.541 158.641 330.119 158.641C327.593 158.641 325.353 159.227 323.4 160.398C321.473 161.544 319.963 163.094 318.869 165.047C317.775 166.974 317.215 169.122 317.189 171.492V181.297C317.189 184.266 317.736 186.831 318.83 188.992C319.949 191.154 321.525 192.82 323.556 193.992C325.588 195.164 327.996 195.75 330.783 195.75C332.632 195.75 334.324 195.49 335.861 194.969C337.397 194.448 338.713 193.667 339.806 192.625C340.9 191.583 341.733 190.307 342.306 188.797L357.697 189.812C356.916 193.51 355.314 196.74 352.892 199.5C350.496 202.234 347.397 204.37 343.595 205.906C339.819 207.417 335.457 208.172 330.509 208.172Z" fill="white"/>
<g filter="url(#filter1_d_1_2)">
<path d="M245.8 160H96.2C90.5667 160 86 165.708 86 172.75V317.25C86 324.292 90.5667 330 96.2 330H245.8C251.433 330 256 324.292 256 317.25V172.75C256 165.708 251.433 160 245.8 160Z" fill="url(#paint2_linear_1_2)"/>
<path d="M245.8 160H96.2C90.5667 160 86 165.708 86 172.75V317.25C86 324.292 90.5667 330 96.2 330H245.8C251.433 330 256 324.292 256 317.25V172.75C256 165.708 251.433 160 245.8 160Z" stroke="#4A5568" stroke-width="1.5"/>
</g>
<path d="M224.985 208.267C224.139 206.975 223.243 205.781 222.298 204.588C221.353 203.395 220.358 202.252 219.263 201.208C218.218 200.114 217.124 199.119 215.93 198.125C214.785 197.131 213.591 196.236 212.347 195.341C210.507 194.048 208.566 192.855 206.576 191.761C204.586 190.668 202.496 189.723 200.407 188.928C198.317 188.082 196.128 187.386 193.939 186.84C191.75 186.293 189.511 185.845 187.272 185.547C186.127 185.398 184.983 185.298 183.889 185.199C182.794 185.05 181.65 185 180.505 185C179.361 185 178.217 185 177.072 185.05C175.928 185.099 174.784 185.199 173.639 185.348C172.495 185.497 171.351 185.646 170.206 185.845C169.062 186.044 167.968 186.293 166.823 186.591C165.679 186.889 164.584 187.188 163.49 187.536C162.395 187.884 161.301 188.281 160.206 188.729L127.568 202.003C126.672 202.351 125.777 202.798 124.931 203.196C124.085 203.644 123.289 204.091 122.493 204.638C121.697 205.135 120.951 205.682 120.254 206.229C119.558 206.776 118.861 207.372 118.264 208.019C117.319 208.963 116.473 209.908 115.677 210.952C114.881 211.996 114.234 213.04 113.637 214.184C113.04 215.327 112.542 216.47 112.144 217.664C111.796 218.857 111.498 220.1 111.299 221.293C111.199 221.939 111.149 222.536 111.1 223.182C111 223.828 111 224.475 111 225.121C111 225.767 111.05 226.414 111.1 227.06C111.149 227.706 111.249 228.353 111.348 228.999C111.498 229.596 111.647 230.242 111.796 230.888C111.995 231.535 112.194 232.181 112.393 232.827C112.642 233.473 112.891 234.12 113.189 234.716C113.488 235.363 113.786 235.959 114.134 236.606C114.582 237.451 115.13 238.246 115.677 238.992C116.224 239.738 116.821 240.483 117.468 241.229C118.115 241.925 118.762 242.621 119.458 243.268C120.155 243.914 120.901 244.51 121.647 245.107C122.792 246.002 123.986 246.797 125.279 247.493C126.523 248.189 127.866 248.836 129.21 249.383C130.553 249.93 131.946 250.377 133.389 250.775C134.832 251.123 136.275 251.421 137.718 251.62C138.464 251.719 139.21 251.769 139.956 251.819C140.703 251.869 141.449 251.869 142.195 251.869C142.942 251.869 143.688 251.819 144.434 251.769C145.181 251.719 145.927 251.62 146.673 251.52C147.419 251.421 148.166 251.272 148.912 251.123C149.658 250.974 150.405 250.775 151.101 250.576C151.847 250.377 152.544 250.128 153.241 249.88C153.937 249.631 154.634 249.333 155.33 249.035L184.187 236.357C185.481 235.81 186.525 235.015 187.371 234.12C188.217 233.225 188.814 232.181 189.162 231.037C189.511 229.944 189.61 228.75 189.461 227.557C189.312 226.364 188.864 225.171 188.167 224.027C187.471 222.884 186.525 221.939 185.431 221.144C184.336 220.348 183.142 219.752 181.849 219.354C180.555 218.956 179.212 218.807 177.868 218.857C176.525 218.907 175.182 219.205 173.888 219.752L145.33 232.081C145.031 232.181 144.782 232.28 144.484 232.38C144.185 232.479 143.937 232.529 143.638 232.628C143.34 232.678 143.091 232.728 142.792 232.777C142.494 232.827 142.245 232.827 141.947 232.827C141.499 232.827 141.101 232.827 140.653 232.777C140.205 232.728 139.807 232.678 139.409 232.579C139.011 232.479 138.563 232.38 138.165 232.231C137.767 232.081 137.369 231.932 137.021 231.733C136.822 231.634 136.623 231.535 136.474 231.435C136.275 231.336 136.125 231.236 135.926 231.087C135.777 230.988 135.578 230.838 135.429 230.739C135.28 230.59 135.13 230.49 134.981 230.341C134.832 230.192 134.683 230.043 134.533 229.894C134.384 229.745 134.235 229.596 134.135 229.446C133.986 229.297 133.887 229.098 133.787 228.949C133.688 228.8 133.538 228.601 133.439 228.402C133.289 228.154 133.19 227.905 133.041 227.657C132.941 227.408 132.842 227.159 132.742 226.911C132.643 226.662 132.593 226.414 132.543 226.165C132.493 225.917 132.444 225.668 132.444 225.419C132.394 225.071 132.394 224.674 132.444 224.326C132.493 223.978 132.543 223.58 132.643 223.232C132.742 222.884 132.842 222.536 132.991 222.188C133.14 221.84 133.339 221.542 133.538 221.194C133.638 221.044 133.737 220.895 133.887 220.746C133.986 220.597 134.135 220.448 134.235 220.299C134.384 220.149 134.484 220 134.633 219.901C134.782 219.752 134.931 219.652 135.081 219.503C135.23 219.354 135.379 219.255 135.528 219.155C135.678 219.056 135.877 218.907 136.026 218.807C136.225 218.708 136.374 218.608 136.573 218.509C136.772 218.409 136.971 218.31 137.17 218.26L170.007 204.539C170.853 204.191 171.699 203.892 172.545 203.644C173.391 203.395 174.236 203.146 175.132 202.948C175.978 202.749 176.873 202.6 177.719 202.5C178.615 202.401 179.461 202.351 180.356 202.301C181.65 202.252 182.993 202.301 184.287 202.401C185.58 202.5 186.924 202.699 188.217 202.997C189.511 203.296 190.804 203.644 192.048 204.041C193.292 204.489 194.486 204.986 195.68 205.533C196.277 205.831 196.824 206.129 197.421 206.428C197.969 206.776 198.566 207.074 199.113 207.472C199.66 207.82 200.208 208.218 200.705 208.615C201.203 209.013 201.75 209.411 202.198 209.858C202.695 210.306 203.193 210.703 203.641 211.201C204.088 211.648 204.536 212.145 204.984 212.642C205.432 213.139 205.83 213.637 206.228 214.184C206.626 214.73 207.024 215.277 207.372 215.824C207.87 216.57 208.268 217.316 208.666 218.111C209.064 218.857 209.412 219.652 209.661 220.398C209.959 221.194 210.208 221.939 210.407 222.735C210.606 223.53 210.755 224.276 210.905 225.071C211.104 226.265 211.153 227.408 211.153 228.601C211.153 229.745 211.004 230.938 210.805 232.081C210.606 233.225 210.308 234.368 209.91 235.462C209.512 236.556 209.014 237.65 208.417 238.644C208.118 239.141 207.82 239.688 207.472 240.135C207.123 240.633 206.775 241.13 206.377 241.577C205.979 242.025 205.581 242.522 205.183 242.969C204.785 243.417 204.337 243.864 203.84 244.262C203.392 244.66 202.894 245.107 202.397 245.455C201.899 245.853 201.352 246.201 200.805 246.599C200.257 246.947 199.66 247.295 199.063 247.593C198.466 247.891 197.869 248.239 197.222 248.488L150.653 269.518L168.764 296.812C169.609 298.055 170.654 299.099 171.848 299.895C173.042 300.69 174.386 301.287 175.779 301.635C177.172 301.983 178.615 302.082 180.058 301.933C181.5 301.784 182.894 301.336 184.187 300.64C185.431 299.944 186.476 299.049 187.272 298.055C188.068 297.061 188.615 295.917 188.963 294.674C189.262 293.481 189.361 292.188 189.162 290.946C188.963 289.703 188.565 288.41 187.819 287.217C187.769 287.167 187.769 287.117 187.72 287.068C187.67 287.018 187.67 286.968 187.62 286.919C187.62 286.869 187.57 286.819 187.521 286.769C187.471 286.72 187.471 286.67 187.421 286.62L181.65 278.069L208.019 265.889C209.512 265.192 210.905 264.447 212.298 263.651C213.641 262.856 214.935 261.961 216.178 261.066C217.422 260.171 218.567 259.177 219.661 258.182C220.756 257.188 221.751 256.144 222.696 255.05C224.089 253.41 225.383 251.719 226.477 249.93C227.572 248.14 228.517 246.3 229.264 244.411C230.01 242.522 230.657 240.583 231.104 238.594C231.552 236.606 231.801 234.617 231.95 232.579C232 231.584 232 230.54 232 229.496C231.95 228.452 231.9 227.458 231.801 226.414C231.701 225.37 231.502 224.375 231.353 223.331C231.154 222.287 230.905 221.293 230.607 220.249C230.308 219.255 230.01 218.211 229.612 217.216C229.264 216.222 228.816 215.178 228.368 214.184C227.92 213.189 227.423 212.195 226.875 211.201C226.229 210.206 225.632 209.212 224.985 208.267Z" fill="#7F8FAB"/>
<path opacity="0.6" d="M195 289V330" stroke="#718096" stroke-width="1.5"/>
<path opacity="0.6" d="M176 310H214" stroke="#718096" stroke-width="1.5"/>
<path d="M155 330C210 330 240 200 400 245" stroke="url(#paint3_linear_1_2)" stroke-width="4.5" stroke-linecap="round"/>
<path opacity="0.7" d="M149 326.49L186.314 341.743" stroke="#F97316" stroke-width="2"/>
<path d="M185.399 334.804C181.566 335.309 178.869 338.826 179.374 342.659C179.88 346.491 183.396 349.189 187.229 348.683C191.062 348.178 193.759 344.661 193.254 340.828C192.749 336.996 189.232 334.298 185.399 334.804Z" fill="#F97316"/>
<path d="M185.791 337.778C183.601 338.067 182.06 340.076 182.348 342.266C182.637 344.457 184.647 345.998 186.837 345.709C189.027 345.42 190.569 343.411 190.28 341.221C189.991 339.03 187.981 337.489 185.791 337.778Z" fill="#FBBF24"/>
<path d="M155 340C160.523 340 165 335.523 165 330C165 324.477 160.523 320 155 320C149.477 320 145 324.477 145 330C145 335.523 149.477 340 155 340Z" fill="#F97316"/>
<path d="M155 336C158.314 336 161 333.314 161 330C161 326.686 158.314 324 155 324C151.686 324 149 326.686 149 330C149 333.314 151.686 336 155 336Z" fill="#FB923C"/>
<path d="M195 317C198.866 317 202 313.866 202 310C202 306.134 198.866 303 195 303C191.134 303 188 306.134 188 310C188 313.866 191.134 317 195 317Z" fill="#F97316"/>
<path d="M195 314C197.209 314 199 312.209 199 310C199 307.791 197.209 306 195 306C192.791 306 191 307.791 191 310C191 312.209 192.791 314 195 314Z" fill="#FBBF24"/>
<path opacity="0.7" d="M400 245L365 225" stroke="#F97316" stroke-width="2"/>
<path d="M365 232C368.866 232 372 228.866 372 225C372 221.134 368.866 218 365 218C361.134 218 358 221.134 358 225C358 228.866 361.134 232 365 232Z" fill="#F97316"/>
<path d="M365 229C367.209 229 369 227.209 369 225C369 222.791 367.209 221 365 221C362.791 221 361 222.791 361 225C361 227.209 362.791 229 365 229Z" fill="#FBBF24"/>
<path d="M400 255C405.523 255 410 250.523 410 245C410 239.477 405.523 235 400 235C394.477 235 390 239.477 390 245C390 250.523 394.477 255 400 255Z" fill="#F97316"/>
<path d="M400 251C403.314 251 406 248.314 406 245C406 241.686 403.314 239 400 239C396.686 239 394 241.686 394 245C394 248.314 396.686 251 400 251Z" fill="#FBBF24"/>
<path d="M537.665 223.5H517.756C517.392 220.924 516.65 218.636 515.528 216.636C514.407 214.606 512.968 212.879 511.21 211.455C509.453 210.03 507.422 208.939 505.119 208.182C502.847 207.424 500.377 207.045 497.71 207.045C492.892 207.045 488.695 208.242 485.119 210.636C481.544 213 478.771 216.455 476.801 221C474.831 225.515 473.847 231 473.847 237.455C473.847 244.091 474.831 249.667 476.801 254.182C478.801 258.697 481.589 262.106 485.165 264.409C488.741 266.712 492.877 267.864 497.574 267.864C500.21 267.864 502.65 267.515 504.892 266.818C507.165 266.121 509.18 265.106 510.938 263.773C512.695 262.409 514.15 260.758 515.301 258.818C516.483 256.879 517.301 254.667 517.756 252.182L537.665 252.273C537.15 256.545 535.862 260.667 533.801 264.636C531.771 268.576 529.028 272.106 525.574 275.227C522.15 278.318 518.059 280.773 513.301 282.591C508.574 284.379 503.225 285.273 497.256 285.273C488.953 285.273 481.528 283.394 474.983 279.636C468.468 275.879 463.316 270.439 459.528 263.318C455.771 256.197 453.892 247.576 453.892 237.455C453.892 227.303 455.801 218.667 459.619 211.545C463.438 204.424 468.619 199 475.165 195.273C481.71 191.515 489.074 189.636 497.256 189.636C502.65 189.636 507.65 190.394 512.256 191.909C516.892 193.424 520.998 195.636 524.574 198.545C528.15 201.424 531.059 204.955 533.301 209.136C535.574 213.318 537.028 218.106 537.665 223.5ZM570.778 190.909V284H551.415V190.909H570.778ZM586.29 284V214.182H605.653V284H586.29ZM596.017 205.182C593.138 205.182 590.669 204.227 588.608 202.318C586.578 200.379 585.562 198.061 585.562 195.364C585.562 192.697 586.578 190.409 588.608 188.5C590.669 186.561 593.138 185.591 596.017 185.591C598.896 185.591 601.35 186.561 603.381 188.5C605.441 190.409 606.472 192.697 606.472 195.364C606.472 198.061 605.441 200.379 603.381 202.318C601.35 204.227 598.896 205.182 596.017 205.182ZM621.165 310.182V214.182H640.256V225.909H641.119C641.968 224.03 643.195 222.121 644.801 220.182C646.438 218.212 648.559 216.576 651.165 215.273C653.801 213.939 657.074 213.273 660.983 213.273C666.074 213.273 670.771 214.606 675.074 217.273C679.377 219.909 682.816 223.894 685.392 229.227C687.968 234.53 689.256 241.182 689.256 249.182C689.256 256.97 687.998 263.545 685.483 268.909C682.998 274.242 679.604 278.288 675.301 281.045C671.028 283.773 666.241 285.136 660.938 285.136C657.18 285.136 653.983 284.515 651.347 283.273C648.741 282.03 646.604 280.47 644.938 278.591C643.271 276.682 641.998 274.758 641.119 272.818H640.528V310.182H621.165ZM640.119 249.091C640.119 253.242 640.695 256.864 641.847 259.955C642.998 263.045 644.665 265.455 646.847 267.182C649.028 268.879 651.68 269.727 654.801 269.727C657.953 269.727 660.619 268.864 662.801 267.136C664.983 265.379 666.634 262.955 667.756 259.864C668.907 256.742 669.483 253.152 669.483 249.091C669.483 245.061 668.922 241.515 667.801 238.455C666.68 235.394 665.028 233 662.847 231.273C660.665 229.545 657.983 228.682 654.801 228.682C651.65 228.682 648.983 229.515 646.801 231.182C644.65 232.848 642.998 235.212 641.847 238.273C640.695 241.333 640.119 244.939 640.119 249.091ZM784.665 223.5H764.756C764.392 220.924 763.65 218.636 762.528 216.636C761.407 214.606 759.968 212.879 758.21 211.455C756.453 210.03 754.422 208.939 752.119 208.182C749.847 207.424 747.377 207.045 744.71 207.045C739.892 207.045 735.695 208.242 732.119 210.636C728.544 213 725.771 216.455 723.801 221C721.831 225.515 720.847 231 720.847 237.455C720.847 244.091 721.831 249.667 723.801 254.182C725.801 258.697 728.589 262.106 732.165 264.409C735.741 266.712 739.877 267.864 744.574 267.864C747.21 267.864 749.65 267.515 751.892 266.818C754.165 266.121 756.18 265.106 757.938 263.773C759.695 262.409 761.15 260.758 762.301 258.818C763.483 256.879 764.301 254.667 764.756 252.182L784.665 252.273C784.15 256.545 782.862 260.667 780.801 264.636C778.771 268.576 776.028 272.106 772.574 275.227C769.15 278.318 765.059 280.773 760.301 282.591C755.574 284.379 750.225 285.273 744.256 285.273C735.953 285.273 728.528 283.394 721.983 279.636C715.468 275.879 710.316 270.439 706.528 263.318C702.771 256.197 700.892 247.576 700.892 237.455C700.892 227.303 702.801 218.667 706.619 211.545C710.438 204.424 715.619 199 722.165 195.273C728.71 191.515 736.074 189.636 744.256 189.636C749.65 189.636 754.65 190.394 759.256 191.909C763.892 193.424 767.998 195.636 771.574 198.545C775.15 201.424 778.059 204.955 780.301 209.136C782.574 213.318 784.028 218.106 784.665 223.5ZM818.324 285.318C813.869 285.318 809.9 284.545 806.415 283C802.93 281.424 800.172 279.106 798.142 276.045C796.142 272.955 795.142 269.106 795.142 264.5C795.142 260.621 795.854 257.364 797.278 254.727C798.703 252.091 800.642 249.97 803.097 248.364C805.551 246.758 808.339 245.545 811.46 244.727C814.612 243.909 817.915 243.333 821.369 243C825.43 242.576 828.703 242.182 831.188 241.818C833.672 241.424 835.475 240.848 836.597 240.091C837.718 239.333 838.278 238.212 838.278 236.727V236.455C838.278 233.576 837.369 231.348 835.551 229.773C833.763 228.197 831.218 227.409 827.915 227.409C824.43 227.409 821.657 228.182 819.597 229.727C817.536 231.242 816.172 233.152 815.506 235.455L797.597 234C798.506 229.758 800.294 226.091 802.96 223C805.627 219.879 809.066 217.485 813.278 215.818C817.521 214.121 822.43 213.273 828.006 213.273C831.884 213.273 835.597 213.727 839.142 214.636C842.718 215.545 845.884 216.955 848.642 218.864C851.43 220.773 853.627 223.227 855.233 226.227C856.839 229.197 857.642 232.758 857.642 236.909V284H839.278V274.318H838.733C837.612 276.5 836.112 278.424 834.233 280.091C832.354 281.727 830.097 283.015 827.46 283.955C824.824 284.864 821.778 285.318 818.324 285.318ZM823.869 271.955C826.718 271.955 829.233 271.394 831.415 270.273C833.597 269.121 835.309 267.576 836.551 265.636C837.794 263.697 838.415 261.5 838.415 259.045V251.636C837.809 252.03 836.975 252.394 835.915 252.727C834.884 253.03 833.718 253.318 832.415 253.591C831.112 253.833 829.809 254.061 828.506 254.273C827.203 254.455 826.021 254.621 824.96 254.773C822.688 255.106 820.703 255.636 819.006 256.364C817.309 257.091 815.991 258.076 815.051 259.318C814.112 260.53 813.642 262.045 813.642 263.864C813.642 266.5 814.597 268.515 816.506 269.909C818.445 271.273 820.9 271.955 823.869 271.955ZM872.665 284V214.182H891.119V226.5H891.938C893.392 222.409 895.816 219.182 899.21 216.818C902.604 214.455 906.665 213.273 911.392 213.273C916.18 213.273 920.256 214.47 923.619 216.864C926.983 219.227 929.225 222.439 930.347 226.5H931.074C932.498 222.5 935.074 219.303 938.801 216.909C942.559 214.485 946.998 213.273 952.119 213.273C958.634 213.273 963.922 215.348 967.983 219.5C972.074 223.621 974.119 229.47 974.119 237.045V284H954.801V240.864C954.801 236.985 953.771 234.076 951.71 232.136C949.65 230.197 947.074 229.227 943.983 229.227C940.468 229.227 937.725 230.348 935.756 232.591C933.786 234.803 932.801 237.727 932.801 241.364V284H914.028V240.455C914.028 237.03 913.044 234.303 911.074 232.273C909.134 230.242 906.574 229.227 903.392 229.227C901.241 229.227 899.301 229.773 897.574 230.864C895.877 231.924 894.528 233.424 893.528 235.364C892.528 237.273 892.028 239.515 892.028 242.091V284H872.665ZM1054.05 214.182V217.091H1026.41V214.182H1054.05ZM1036.05 284V202.727C1036.05 199.455 1036.78 196.621 1038.23 194.227C1039.72 191.833 1041.67 189.985 1044.1 188.682C1046.55 187.379 1049.2 186.727 1052.05 186.727C1053.14 186.727 1054.13 186.818 1055.01 187C1055.88 187.182 1056.75 187.424 1057.6 187.727L1056.69 190.455C1055.93 190.212 1055.19 190.015 1054.46 189.864C1053.73 189.712 1052.93 189.636 1052.05 189.636C1048.57 189.636 1045.51 190.803 1042.87 193.136C1040.26 195.47 1038.96 198.667 1038.96 202.727L1038.87 284H1036.05ZM1094.28 285.455C1088.79 285.455 1083.87 283.879 1079.51 280.727C1075.14 277.545 1071.69 273.227 1069.14 267.773C1066.63 262.288 1065.37 256.121 1065.37 249.273C1065.37 242.394 1066.63 236.227 1069.14 230.773C1071.69 225.318 1075.14 221.015 1079.51 217.864C1083.87 214.682 1088.79 213.091 1094.28 213.091C1099.76 213.091 1104.67 214.682 1109.01 217.864C1113.37 221.045 1116.82 225.364 1119.37 230.818C1121.91 236.273 1123.19 242.424 1123.19 249.273C1123.19 256.121 1121.91 262.288 1119.37 267.773C1116.85 273.227 1113.41 277.545 1109.05 280.727C1104.69 283.879 1099.76 285.455 1094.28 285.455ZM1094.28 282.545C1099.22 282.545 1103.64 281.091 1107.55 278.182C1111.49 275.273 1114.6 271.303 1116.87 266.273C1119.14 261.242 1120.28 255.576 1120.28 249.273C1120.28 242.97 1119.13 237.318 1116.82 232.318C1114.55 227.288 1111.46 223.318 1107.55 220.409C1103.64 217.47 1099.22 216 1094.28 216C1089.37 216 1084.95 217.47 1081.01 220.409C1077.1 223.318 1073.99 227.288 1071.69 232.318C1069.41 237.318 1068.28 242.97 1068.28 249.273C1068.28 255.576 1069.41 261.242 1071.69 266.273C1073.96 271.303 1077.05 275.273 1080.96 278.182C1084.9 281.091 1089.34 282.545 1094.28 282.545ZM1143.68 284V214.182H1146.59V225.273H1146.95C1148.59 221.636 1151.27 218.727 1154.99 216.545C1158.75 214.364 1163.04 213.273 1167.86 213.273C1168.22 213.273 1168.46 213.273 1168.59 213.273C1168.71 213.273 1168.95 213.273 1169.31 213.273V216.182C1168.95 216.182 1168.71 216.182 1168.59 216.182C1168.46 216.182 1168.22 216.182 1167.86 216.182C1163.74 216.182 1160.07 217.076 1156.86 218.864C1153.68 220.652 1151.16 223.121 1149.31 226.273C1147.49 229.424 1146.59 233.03 1146.59 237.091V284H1143.68ZM1216.21 284H1213.12L1246.39 190.909H1250.39L1283.66 284H1280.57L1248.57 194.545H1248.21L1216.21 284ZM1226.76 249.636H1270.03V252.545H1226.76V249.636ZM1302.36 284V190.909H1351.99V193.818H1305.27V236H1349.27V238.909H1305.27V281.091H1353.27V284H1302.36Z" fill="white"/>
<defs>
<filter id="filter0_d_1_2" x="191.25" y="70.25" width="215.5" height="215.5" filterUnits="userSpaceOnUse" color-interpolation-filters="sRGB">
<feFlood flood-opacity="0" result="BackgroundImageFix"/>
<feColorMatrix in="SourceAlpha" type="matrix" values="0 0 0 0 0 0 0 0 0 0 0 0 0 0 0 0 0 0 127 0" result="hardAlpha"/>
<feOffset/>
<feGaussianBlur stdDeviation="9"/>
<feComposite in2="hardAlpha" operator="out"/>
<feColorMatrix type="matrix" values="0 0 0 0 0 0 0 0 0 0 0 0 0 0 0 0 0 0 0.41 0"/>
<feBlend mode="normal" in2="BackgroundImageFix" result="effect1_dropShadow_1_2"/>
<feBlend mode="normal" in="SourceGraphic" in2="effect1_dropShadow_1_2" result="shape"/>
</filter>
<filter id="filter1_d_1_2" x="67.25" y="141.25" width="207.5" height="207.5" filterUnits="userSpaceOnUse" color-interpolation-filters="sRGB">
<feFlood flood-opacity="0" result="BackgroundImageFix"/>
<feColorMatrix in="SourceAlpha" type="matrix" values="0 0 0 0 0 0 0 0 0 0 0 0 0 0 0 0 0 0 127 0" result="hardAlpha"/>
<feOffset/>
<feGaussianBlur stdDeviation="9"/>
<feComposite in2="hardAlpha" operator="out"/>
<feColorMatrix type="matrix" values="0 0 0 0 0 0 0 0 0 0 0 0 0 0 0 0 0 0 0.41 0"/>
<feBlend mode="normal" in2="BackgroundImageFix" result="effect1_dropShadow_1_2"/>
<feBlend mode="normal" in="SourceGraphic" in2="effect1_dropShadow_1_2" result="shape"/>
</filter>
<linearGradient id="paint0_linear_1_2" x1="155" y1="185" x2="155" y2="365.466" gradientUnits="userSpaceOnUse">
<stop stop-color="#2D3748"/>
<stop offset="1" stop-color="#1A202C"/>
</linearGradient>
<linearGradient id="paint1_linear_1_2" x1="210" y1="89" x2="210" y2="267" gradientUnits="userSpaceOnUse">
<stop stop-color="#7C3AED"/>
<stop offset="1" stop-color="#5B21B6"/>
</linearGradient>
<linearGradient id="paint2_linear_1_2" x1="86" y1="160" x2="86" y2="330" gradientUnits="userSpaceOnUse">
<stop stop-color="#4A5568"/>
<stop offset="1" stop-color="#2D3748"/>
</linearGradient>
<linearGradient id="paint3_linear_1_2" x1="155" y1="235.531" x2="400" y2="235.531" gradientUnits="userSpaceOnUse">
<stop stop-color="#22D3EE"/>
<stop offset="1" stop-color="#06B6D4"/>
</linearGradient>
</defs>
</svg>
