<svg width="512" height="512" viewBox="0 0 512 512" fill="none" xmlns="http://www.w3.org/2000/svg">
<path d="M362.522 185H162.478C158.348 185 155 187.81 155 191.277V359.189C155 362.656 158.348 365.466 162.478 365.466H362.522C366.652 365.466 370 362.656 370 359.189V191.277C370 187.81 366.652 185 362.522 185Z" fill="url(#paint0_linear_1_2)" stroke="#374151" stroke-width="2"/>
<path d="M182.109 188.923V361.543" stroke="#374151" stroke-width="0.8"/>
<path d="M209.217 188.923V361.543" stroke="#374151" stroke-width="0.8"/>
<path d="M236.326 188.923V361.543" stroke="#374151" stroke-width="0.8"/>
<path d="M263.435 188.923V361.543" stroke="#374151" stroke-width="0.8"/>
<path d="M290.543 188.923V361.543" stroke="#374151" stroke-width="0.8"/>
<path d="M317.652 188.923V361.543" stroke="#374151" stroke-width="0.8"/>
<path d="M344.761 188.923V361.543" stroke="#374151" stroke-width="0.8"/>
<path d="M159.674 207.754H365.326" stroke="#374151" stroke-width="0.8"/>
<path d="M159.674 230.509H365.326" stroke="#374151" stroke-width="0.8"/>
<path d="M159.674 253.263H365.326" stroke="#374151" stroke-width="0.8"/>
<path d="M159.674 276.018H365.326" stroke="#374151" stroke-width="0.8"/>
<path d="M159.674 298.772H365.326" stroke="#374151" stroke-width="0.8"/>
<path d="M159.674 321.527H365.326" stroke="#374151" stroke-width="0.8"/>
<path d="M159.674 344.281H365.326" stroke="#374151" stroke-width="0.8"/>
<g filter="url(#filter0_d_1_2)">
<path d="M377.32 89H220.68C214.782 89 210 94.977 210 102.35V253.65C210 261.023 214.782 267 220.68 267H377.32C383.218 267 388 261.023 388 253.65V102.35C388 94.977 383.218 89 377.32 89Z" fill="url(#paint1_linear_1_2)"/>
<path d="M377.32 89H220.68C214.782 89 210 94.977 210 102.35V253.65C210 261.023 214.782 267 220.68 267H377.32C383.218 267 388 261.023 388 253.65V102.35C388 94.977 383.218 89 377.32 89Z" stroke="#3F118E" stroke-width="1.5"/>
</g>
<path opacity="0.58" d="M245.475 207H227.35L254.967 127H276.764L304.342 207H286.217L266.178 145.281H265.553L245.475 207ZM244.342 175.555H287.155V188.758H244.342V175.555ZM330.509 208.172C324.338 208.172 319.025 206.922 314.572 204.422C310.145 201.896 306.733 198.328 304.338 193.719C301.942 189.083 300.744 183.602 300.744 177.273C300.744 171.102 301.942 165.685 304.338 161.023C306.733 156.362 310.106 152.729 314.455 150.125C318.83 147.521 323.96 146.219 329.845 146.219C333.804 146.219 337.489 146.857 340.9 148.133C344.338 149.383 347.332 151.271 349.884 153.797C352.463 156.323 354.468 159.5 355.9 163.328C357.332 167.13 358.048 171.583 358.048 176.687V181.258H307.384V170.945H342.384C342.384 168.549 341.864 166.427 340.822 164.578C339.78 162.729 338.335 161.284 336.486 160.242C334.663 159.174 332.541 158.641 330.119 158.641C327.593 158.641 325.353 159.227 323.4 160.398C321.473 161.544 319.963 163.094 318.869 165.047C317.775 166.974 317.215 169.122 317.189 171.492V181.297C317.189 184.266 317.736 186.831 318.83 188.992C319.949 191.154 321.525 192.82 323.556 193.992C325.588 195.164 327.996 195.75 330.783 195.75C332.632 195.75 334.324 195.49 335.861 194.969C337.397 194.448 338.713 193.667 339.806 192.625C340.9 191.583 341.733 190.307 342.306 188.797L357.697 189.812C356.916 193.51 355.314 196.74 352.892 199.5C350.496 202.234 347.397 204.37 343.595 205.906C339.819 207.417 335.457 208.172 330.509 208.172Z" fill="white"/>
<g filter="url(#filter1_d_1_2)">
<path d="M245.8 160H96.2C90.5667 160 86 165.708 86 172.75V317.25C86 324.292 90.5667 330 96.2 330H245.8C251.433 330 256 324.292 256 317.25V172.75C256 165.708 251.433 160 245.8 160Z" fill="url(#paint2_linear_1_2)"/>
<path d="M245.8 160H96.2C90.5667 160 86 165.708 86 172.75V317.25C86 324.292 90.5667 330 96.2 330H245.8C251.433 330 256 324.292 256 317.25V172.75C256 165.708 251.433 160 245.8 160Z" stroke="#4A5568" stroke-width="1.5"/>
</g>
<path d="M224.985 208.267C224.139 206.975 223.243 205.781 222.298 204.588C221.353 203.395 220.358 202.252 219.263 201.208C218.218 200.114 217.124 199.119 215.93 198.125C214.785 197.131 213.591 196.236 212.347 195.341C210.507 194.048 208.566 192.855 206.576 191.761C204.586 190.668 202.496 189.723 200.407 188.928C198.317 188.082 196.128 187.386 193.939 186.84C191.75 186.293 189.511 185.845 187.272 185.547C186.127 185.398 184.983 185.298 183.889 185.199C182.794 185.05 181.65 185 180.505 185C179.361 185 178.217 185 177.072 185.05C175.928 185.099 174.784 185.199 173.639 185.348C172.495 185.497 171.351 185.646 170.206 185.845C169.062 186.044 167.968 186.293 166.823 186.591C165.679 186.889 164.584 187.188 163.49 187.536C162.395 187.884 161.301 188.281 160.206 188.729L127.568 202.003C126.672 202.351 125.777 202.798 124.931 203.196C124.085 203.644 123.289 204.091 122.493 204.638C121.697 205.135 120.951 205.682 120.254 206.229C119.558 206.776 118.861 207.372 118.264 208.019C117.319 208.963 116.473 209.908 115.677 210.952C114.881 211.996 114.234 213.04 113.637 214.184C113.04 215.327 112.542 216.47 112.144 217.664C111.796 218.857 111.498 220.1 111.299 221.293C111.199 221.939 111.149 222.536 111.1 223.182C111 223.828 111 224.475 111 225.121C111 225.767 111.05 226.414 111.1 227.06C111.149 227.706 111.249 228.353 111.348 228.999C111.498 229.596 111.647 230.242 111.796 230.888C111.995 231.535 112.194 232.181 112.393 232.827C112.642 233.473 112.891 234.12 113.189 234.716C113.488 235.363 113.786 235.959 114.134 236.606C114.582 237.451 115.13 238.246 115.677 238.992C116.224 239.738 116.821 240.483 117.468 241.229C118.115 241.925 118.762 242.621 119.458 243.268C120.155 243.914 120.901 244.51 121.647 245.107C122.792 246.002 123.986 246.797 125.279 247.493C126.523 248.189 127.866 248.836 129.21 249.383C130.553 249.93 131.946 250.377 133.389 250.775C134.832 251.123 136.275 251.421 137.718 251.62C138.464 251.719 139.21 251.769 139.956 251.819C140.703 251.869 141.449 251.869 142.195 251.869C142.942 251.869 143.688 251.819 144.434 251.769C145.181 251.719 145.927 251.62 146.673 251.52C147.419 251.421 148.166 251.272 148.912 251.123C149.658 250.974 150.405 250.775 151.101 250.576C151.847 250.377 152.544 250.128 153.241 249.88C153.937 249.631 154.634 249.333 155.33 249.035L184.187 236.357C185.481 235.81 186.525 235.015 187.371 234.12C188.217 233.225 188.814 232.181 189.162 231.037C189.511 229.944 189.61 228.75 189.461 227.557C189.312 226.364 188.864 225.171 188.167 224.027C187.471 222.884 186.525 221.939 185.431 221.144C184.336 220.348 183.142 219.752 181.849 219.354C180.555 218.956 179.212 218.807 177.868 218.857C176.525 218.907 175.182 219.205 173.888 219.752L145.33 232.081C145.031 232.181 144.782 232.28 144.484 232.38C144.185 232.479 143.937 232.529 143.638 232.628C143.34 232.678 143.091 232.728 142.792 232.777C142.494 232.827 142.245 232.827 141.947 232.827C141.499 232.827 141.101 232.827 140.653 232.777C140.205 232.728 139.807 232.678 139.409 232.579C139.011 232.479 138.563 232.38 138.165 232.231C137.767 232.081 137.369 231.932 137.021 231.733C136.822 231.634 136.623 231.535 136.474 231.435C136.275 231.336 136.125 231.236 135.926 231.087C135.777 230.988 135.578 230.838 135.429 230.739C135.28 230.59 135.13 230.49 134.981 230.341C134.832 230.192 134.683 230.043 134.533 229.894C134.384 229.745 134.235 229.596 134.135 229.446C133.986 229.297 133.887 229.098 133.787 228.949C133.688 228.8 133.538 228.601 133.439 228.402C133.289 228.154 133.19 227.905 133.041 227.657C132.941 227.408 132.842 227.159 132.742 226.911C132.643 226.662 132.593 226.414 132.543 226.165C132.493 225.917 132.444 225.668 132.444 225.419C132.394 225.071 132.394 224.674 132.444 224.326C132.493 223.978 132.543 223.58 132.643 223.232C132.742 222.884 132.842 222.536 132.991 222.188C133.14 221.84 133.339 221.542 133.538 221.194C133.638 221.044 133.737 220.895 133.887 220.746C133.986 220.597 134.135 220.448 134.235 220.299C134.384 220.149 134.484 220 134.633 219.901C134.782 219.752 134.931 219.652 135.081 219.503C135.23 219.354 135.379 219.255 135.528 219.155C135.678 219.056 135.877 218.907 136.026 218.807C136.225 218.708 136.374 218.608 136.573 218.509C136.772 218.409 136.971 218.31 137.17 218.26L170.007 204.539C170.853 204.191 171.699 203.892 172.545 203.644C173.391 203.395 174.236 203.146 175.132 202.948C175.978 202.749 176.873 202.6 177.719 202.5C178.615 202.401 179.461 202.351 180.356 202.301C181.65 202.252 182.993 202.301 184.287 202.401C185.58 202.5 186.924 202.699 188.217 202.997C189.511 203.296 190.804 203.644 192.048 204.041C193.292 204.489 194.486 204.986 195.68 205.533C196.277 205.831 196.824 206.129 197.421 206.428C197.969 206.776 198.566 207.074 199.113 207.472C199.66 207.82 200.208 208.218 200.705 208.615C201.203 209.013 201.75 209.411 202.198 209.858C202.695 210.306 203.193 210.703 203.641 211.201C204.088 211.648 204.536 212.145 204.984 212.642C205.432 213.139 205.83 213.637 206.228 214.184C206.626 214.73 207.024 215.277 207.372 215.824C207.87 216.57 208.268 217.316 208.666 218.111C209.064 218.857 209.412 219.652 209.661 220.398C209.959 221.194 210.208 221.939 210.407 222.735C210.606 223.53 210.755 224.276 210.905 225.071C211.104 226.265 211.153 227.408 211.153 228.601C211.153 229.745 211.004 230.938 210.805 232.081C210.606 233.225 210.308 234.368 209.91 235.462C209.512 236.556 209.014 237.65 208.417 238.644C208.118 239.141 207.82 239.688 207.472 240.135C207.123 240.633 206.775 241.13 206.377 241.577C205.979 242.025 205.581 242.522 205.183 242.969C204.785 243.417 204.337 243.864 203.84 244.262C203.392 244.66 202.894 245.107 202.397 245.455C201.899 245.853 201.352 246.201 200.805 246.599C200.257 246.947 199.66 247.295 199.063 247.593C198.466 247.891 197.869 248.239 197.222 248.488L150.653 269.518L168.764 296.812C169.609 298.055 170.654 299.099 171.848 299.895C173.042 300.69 174.386 301.287 175.779 301.635C177.172 301.983 178.615 302.082 180.058 301.933C181.5 301.784 182.894 301.336 184.187 300.64C185.431 299.944 186.476 299.049 187.272 298.055C188.068 297.061 188.615 295.917 188.963 294.674C189.262 293.481 189.361 292.188 189.162 290.946C188.963 289.703 188.565 288.41 187.819 287.217C187.769 287.167 187.769 287.117 187.72 287.068C187.67 287.018 187.67 286.968 187.62 286.919C187.62 286.869 187.57 286.819 187.521 286.769C187.471 286.72 187.471 286.67 187.421 286.62L181.65 278.069L208.019 265.889C209.512 265.192 210.905 264.447 212.298 263.651C213.641 262.856 214.935 261.961 216.178 261.066C217.422 260.171 218.567 259.177 219.661 258.182C220.756 257.188 221.751 256.144 222.696 255.05C224.089 253.41 225.383 251.719 226.477 249.93C227.572 248.14 228.517 246.3 229.264 244.411C230.01 242.522 230.657 240.583 231.104 238.594C231.552 236.606 231.801 234.617 231.95 232.579C232 231.584 232 230.54 232 229.496C231.95 228.452 231.9 227.458 231.801 226.414C231.701 225.37 231.502 224.375 231.353 223.331C231.154 222.287 230.905 221.293 230.607 220.249C230.308 219.255 230.01 218.211 229.612 217.216C229.264 216.222 228.816 215.178 228.368 214.184C227.92 213.189 227.423 212.195 226.875 211.201C226.229 210.206 225.632 209.212 224.985 208.267Z" fill="#7F8FAB"/>
<path opacity="0.6" d="M195 289V330" stroke="#718096" stroke-width="1.5"/>
<path opacity="0.6" d="M176 310H214" stroke="#718096" stroke-width="1.5"/>
<path d="M155 330C210 330 240 200 400 245" stroke="url(#paint3_linear_1_2)" stroke-width="4.5" stroke-linecap="round"/>
<path opacity="0.7" d="M149 326.49L186.314 341.743" stroke="#F97316" stroke-width="2"/>
<path d="M185.399 334.804C181.566 335.309 178.869 338.826 179.374 342.659C179.88 346.491 183.396 349.189 187.229 348.683C191.062 348.178 193.759 344.661 193.254 340.828C192.749 336.996 189.232 334.298 185.399 334.804Z" fill="#F97316"/>
<path d="M185.791 337.778C183.601 338.067 182.06 340.076 182.348 342.266C182.637 344.457 184.647 345.998 186.837 345.709C189.027 345.42 190.569 343.411 190.28 341.221C189.991 339.03 187.981 337.489 185.791 337.778Z" fill="#FBBF24"/>
<path d="M155 340C160.523 340 165 335.523 165 330C165 324.477 160.523 320 155 320C149.477 320 145 324.477 145 330C145 335.523 149.477 340 155 340Z" fill="#F97316"/>
<path d="M155 336C158.314 336 161 333.314 161 330C161 326.686 158.314 324 155 324C151.686 324 149 326.686 149 330C149 333.314 151.686 336 155 336Z" fill="#FB923C"/>
<path d="M195 317C198.866 317 202 313.866 202 310C202 306.134 198.866 303 195 303C191.134 303 188 306.134 188 310C188 313.866 191.134 317 195 317Z" fill="#F97316"/>
<path d="M195 314C197.209 314 199 312.209 199 310C199 307.791 197.209 306 195 306C192.791 306 191 307.791 191 310C191 312.209 192.791 314 195 314Z" fill="#FBBF24"/>
<path opacity="0.7" d="M400 245L365 225" stroke="#F97316" stroke-width="2"/>
<path d="M365 232C368.866 232 372 228.866 372 225C372 221.134 368.866 218 365 218C361.134 218 358 221.134 358 225C358 228.866 361.134 232 365 232Z" fill="#F97316"/>
<path d="M365 229C367.209 229 369 227.209 369 225C369 222.791 367.209 221 365 221C362.791 221 361 222.791 361 225C361 227.209 362.791 229 365 229Z" fill="#FBBF24"/>
<path d="M400 255C405.523 255 410 250.523 410 245C410 239.477 405.523 235 400 235C394.477 235 390 239.477 390 245C390 250.523 394.477 255 400 255Z" fill="#F97316"/>
<path d="M400 251C403.314 251 406 248.314 406 245C406 241.686 403.314 239 400 239C396.686 239 394 241.686 394 245C394 248.314 396.686 251 400 251Z" fill="#FBBF24"/>
<defs>
<filter id="filter0_d_1_2" x="191.25" y="70.25" width="215.5" height="215.5" filterUnits="userSpaceOnUse" color-interpolation-filters="sRGB">
<feFlood flood-opacity="0" result="BackgroundImageFix"/>
<feColorMatrix in="SourceAlpha" type="matrix" values="0 0 0 0 0 0 0 0 0 0 0 0 0 0 0 0 0 0 127 0" result="hardAlpha"/>
<feOffset/>
<feGaussianBlur stdDeviation="9"/>
<feComposite in2="hardAlpha" operator="out"/>
<feColorMatrix type="matrix" values="0 0 0 0 0 0 0 0 0 0 0 0 0 0 0 0 0 0 0.41 0"/>
<feBlend mode="normal" in2="BackgroundImageFix" result="effect1_dropShadow_1_2"/>
<feBlend mode="normal" in="SourceGraphic" in2="effect1_dropShadow_1_2" result="shape"/>
</filter>
<filter id="filter1_d_1_2" x="67.25" y="141.25" width="207.5" height="207.5" filterUnits="userSpaceOnUse" color-interpolation-filters="sRGB">
<feFlood flood-opacity="0" result="BackgroundImageFix"/>
<feColorMatrix in="SourceAlpha" type="matrix" values="0 0 0 0 0 0 0 0 0 0 0 0 0 0 0 0 0 0 127 0" result="hardAlpha"/>
<feOffset/>
<feGaussianBlur stdDeviation="9"/>
<feComposite in2="hardAlpha" operator="out"/>
<feColorMatrix type="matrix" values="0 0 0 0 0 0 0 0 0 0 0 0 0 0 0 0 0 0 0.41 0"/>
<feBlend mode="normal" in2="BackgroundImageFix" result="effect1_dropShadow_1_2"/>
<feBlend mode="normal" in="SourceGraphic" in2="effect1_dropShadow_1_2" result="shape"/>
</filter>
<linearGradient id="paint0_linear_1_2" x1="155" y1="185" x2="155" y2="365.466" gradientUnits="userSpaceOnUse">
<stop stop-color="#2D3748"/>
<stop offset="1" stop-color="#1A202C"/>
</linearGradient>
<linearGradient id="paint1_linear_1_2" x1="210" y1="89" x2="210" y2="267" gradientUnits="userSpaceOnUse">
<stop stop-color="#7C3AED"/>
<stop offset="1" stop-color="#5B21B6"/>
</linearGradient>
<linearGradient id="paint2_linear_1_2" x1="86" y1="160" x2="86" y2="330" gradientUnits="userSpaceOnUse">
<stop stop-color="#4A5568"/>
<stop offset="1" stop-color="#2D3748"/>
</linearGradient>
<linearGradient id="paint3_linear_1_2" x1="155" y1="235.531" x2="400" y2="235.531" gradientUnits="userSpaceOnUse">
<stop stop-color="#22D3EE"/>
<stop offset="1" stop-color="#06B6D4"/>
</linearGradient>
</defs>
</svg>
